<svg xmlns="http://www.w3.org/2000/svg" width="20" height="20" viewBox="0 0 20 20" fill="none">
  <path d="M8.33342 6.66683V5.8335M8.33342 10.4168V9.5835M8.33342 14.1668V13.3335M4.33341 3.3335H15.6667C16.6002 3.3335 17.0669 3.3335 17.4234 3.51515C17.737 3.67494 17.992 3.92991 18.1518 4.24351C18.3334 4.60003 18.3334 5.06674 18.3334 6.00016V7.0835C16.7226 7.0835 15.4167 8.38933 15.4167 10.0002C15.4167 11.611 16.7226 12.9168 18.3334 12.9168V14.0002C18.3334 14.9336 18.3334 15.4003 18.1518 15.7568C17.992 16.0704 17.737 16.3254 17.4234 16.4852C17.0669 16.6668 16.6002 16.6668 15.6667 16.6668H4.33342C3.39999 16.6668 2.93328 16.6668 2.57676 16.4852C2.26316 16.3254 2.00819 16.0704 1.8484 15.7568C1.66675 15.4003 1.66675 14.9336 1.66675 14.0002V12.9168C3.27758 12.9168 4.58341 11.611 4.58341 10.0002C4.58341 8.38933 3.27758 7.0835 1.66675 7.0835V6.00016C1.66675 5.06674 1.66675 4.60003 1.8484 4.24351C2.00819 3.92991 2.26316 3.67494 2.57676 3.51515C2.93328 3.3335 3.39999 3.3335 4.33341 3.3335Z" stroke="#474747" stroke-width="2" stroke-linecap="round" stroke-linejoin="round"/>
</svg>